<?xml version="1.0" encoding="utf-8"?>
<!-- Generator: Adobe Illustrator 24.1.0, SVG Export Plug-In . SVG Version: 6.00 Build 0)  -->
<svg version="1.1" id="Capa_1" xmlns="http://www.w3.org/2000/svg" xmlns:xlink="http://www.w3.org/1999/xlink" x="0px" y="0px"
	 viewBox="0 0 400 155" style="enable-background:new 0 0 400 155;" xml:space="preserve">
<g>
	<g>
		<path d="M25.6,85.2l60.2,27.4v9.5l-72-32.5v-8.8l72-32.6v9.6L25.6,85.2z"/>
		<path d="M113.9,19.8v37.8h0.3c2-4.1,5.1-7,9.4-8.9c4.2-1.8,8.9-2.8,14-2.8c5.7,0,10.6,1,14.8,3.1c4.2,2.1,7.7,4.9,10.5,8.4
			c2.8,3.5,4.9,7.6,6.3,12.3s2.1,9.6,2.1,14.7c0,5.2-0.7,10.1-2.1,14.8s-3.4,8.7-6.2,12.1c-2.8,3.5-6.3,6.2-10.5,8.2
			c-4.2,2-9.1,3-14.7,3c-1.8,0-3.8-0.2-6-0.6c-2.2-0.4-4.4-1-6.6-1.8s-4.2-2-6.2-3.5c-1.9-1.5-3.6-3.3-4.9-5.5h-0.3v9.8h-12.1V19.8
			H113.9z M157.2,73.8c-0.9-3.3-2.3-6.2-4.1-8.7c-1.8-2.5-4.2-4.6-7.1-6.1s-6.3-2.3-10.1-2.3c-4.1,0-7.5,0.8-10.3,2.4
			c-2.8,1.6-5.2,3.7-6.9,6.3c-1.8,2.6-3.1,5.6-3.9,8.9c-0.8,3.3-1.2,6.7-1.2,10.1c0,3.6,0.4,7.1,1.3,10.4c0.8,3.3,2.2,6.3,4,8.9
			c1.8,2.6,4.2,4.6,7.2,6.2c2.9,1.6,6.5,2.3,10.6,2.3c4.2,0,7.6-0.8,10.4-2.4c2.8-1.6,5-3.7,6.7-6.4c1.7-2.7,2.9-5.7,3.7-9.1
			c0.8-3.4,1.1-6.9,1.1-10.5C158.6,80.3,158.1,77,157.2,73.8z"/>
		<path d="M238.9,121v-9.9h-0.3c-2,4.1-5.1,7-9.4,8.8c-4.2,1.8-8.9,2.7-14,2.7c-5.7,0-10.6-1-14.8-3.1c-4.2-2.1-7.7-4.9-10.5-8.4
			c-2.8-3.5-4.9-7.6-6.3-12.2c-1.4-4.6-2.1-9.5-2.1-14.7c0-5.2,0.7-10.1,2.1-14.7s3.4-8.7,6.2-12.1c2.8-3.5,6.3-6.2,10.5-8.2
			c4.2-2,9.1-3,14.7-3c1.9,0,3.9,0.2,6.1,0.6c2.2,0.4,4.4,1,6.5,1.9c2.2,0.9,4.2,2.1,6.2,3.5s3.6,3.3,4.9,5.5h0.3V19.8h12V121H238.9
			z M195.6,95c0.9,3.3,2.3,6.2,4.1,8.7c1.9,2.6,4.2,4.6,7.1,6.1s6.3,2.3,10.1,2.3c4.1,0,7.5-0.8,10.4-2.4c2.8-1.6,5.1-3.7,6.9-6.3
			c1.8-2.6,3.1-5.6,3.9-8.9s1.2-6.7,1.2-10.1c0-3.6-0.4-7.1-1.3-10.4s-2.2-6.3-4-8.9c-1.8-2.5-4.2-4.6-7.2-6.2
			c-2.9-1.6-6.5-2.3-10.6-2.3c-4.1,0-7.5,0.8-10.4,2.4c-2.8,1.6-5.1,3.7-6.8,6.4c-1.7,2.7-2.9,5.7-3.7,9.1
			c-0.8,3.4-1.1,6.9-1.1,10.5C194.3,88.4,194.7,91.8,195.6,95z"/>
		<path d="M310.2,17.4l-42,105.9h-10.2l41.8-105.9C299.9,17.4,310.2,17.4,310.2,17.4z"/>
		<path d="M374.5,85.2l-60.2-27.4v-9.6l72,32.6v8.8l-72,32.5v-9.5L374.5,85.2z"/>
	</g>
</g>
</svg>
