<?xml version="1.0" encoding="utf-8"?>
<!-- Generator: Adobe Illustrator 24.1.0, SVG Export Plug-In . SVG Version: 6.00 Build 0)  -->
<svg version="1.1" id="Capa_1" xmlns="http://www.w3.org/2000/svg" xmlns:xlink="http://www.w3.org/1999/xlink" x="0px" y="0px"
	 viewBox="0 0 400 111.59" style="enable-background:new 0 0 400 111.59;" xml:space="preserve">
<g>
	<g>
		<path d="M10.97,71.44h2.09v19.73h-2.09V71.44z"/>
		<path d="M51.95,71.44v19.73h-1.72L37.55,75.16v16.01h-2.09V71.44h1.72l12.71,16.01V71.44H51.95z"/>
		<path d="M94.85,71.44v19.73h-2V75.39L85.1,88.66h-0.99l-7.75-13.19v15.7h-2V71.44h1.72l8.57,14.63l8.48-14.63H94.85z"/>
		<path d="M115.52,81.31c0-5.75,4.4-10.03,10.37-10.03c5.92,0,10.34,4.26,10.34,10.03c0,5.78-4.43,10.03-10.34,10.03
			C119.91,91.34,115.52,87.06,115.52,81.31z M134.15,81.31c0-4.71-3.52-8.17-8.26-8.17c-4.76,0-8.32,3.47-8.32,8.17
			c0,4.71,3.55,8.17,8.32,8.17C130.62,89.48,134.15,86.02,134.15,81.31z"/>
		<path d="M173.38,85.9c0,3.35-2.48,5.27-7.41,5.27h-9.08V71.44h8.51c4.4,0,6.93,1.86,6.93,5.07c0,2.26-1.21,3.75-3.02,4.48
			C171.86,81.56,173.38,83.22,173.38,85.9z M158.98,73.16v7.16h6.29c3.16,0,4.99-1.21,4.99-3.58s-1.83-3.58-4.99-3.58H158.98z
			 M171.3,85.73c0-2.57-1.89-3.69-5.36-3.69h-6.96v7.41h6.96C169.41,89.45,171.3,88.33,171.3,85.73z"/>
		<path d="M194.13,71.44h2.09v19.73h-2.09V71.44z"/>
		<path d="M218.63,71.44h2.09v17.93h11.05v1.8h-13.14V71.44z"/>
		<path d="M251.21,71.44h2.09v19.73h-2.09V71.44z"/>
		<path d="M288.08,85.9h-10.99l-2.37,5.27h-2.17l9.02-19.73h2.06l9.02,19.73h-2.2L288.08,85.9z M287.32,84.21l-4.73-10.6l-4.74,10.6
			H287.32z"/>
		<path d="M325.37,91.17l-4.51-6.34c-0.51,0.06-1.01,0.08-1.58,0.08h-5.3v6.26h-2.09V71.44h7.38c5.02,0,8.06,2.54,8.06,6.76
			c0,3.1-1.63,5.27-4.51,6.2l4.82,6.76H325.37z M325.26,78.21c0-3.16-2.09-4.96-6.03-4.96h-5.24v9.89h5.24
			C323.18,83.14,325.26,81.31,325.26,78.21z"/>
		<path d="M348.26,71.44h2.09v19.73h-2.09V71.44z"/>
		<path d="M385.13,85.9h-10.99l-2.37,5.27h-2.17l9.02-19.73h2.06l9.02,19.73h-2.2L385.13,85.9z M384.37,84.21l-4.74-10.6l-4.73,10.6
			H384.37z"/>
	</g>
	<g>
		<path d="M20.79,59.17H5.62v-0.96c0.78-0.04,2.66-0.35,3.23-0.57c1.05-0.39,1.35-1.13,1.35-2.09V33.27c0-0.96-0.31-1.74-1.35-2.18
			c-0.92-0.39-2.27-0.7-3.05-0.74v-0.96h14.91c3.23,0,8.55,1.31,8.55,5.97c0,4.93-3.4,6.41-7.54,7.59v0.39
			c3.1,0.35,9.11,2.18,9.11,7.94C30.82,56.86,24.94,59.17,20.79,59.17z M18.4,30.56c-0.74,0-2.53,0.04-3.58,0.09v12.17h2.7
			c4.8,0,6.5-2.97,6.5-6.63C24.02,31.87,21.1,30.56,18.4,30.56z M18.53,44c-0.78,0-2.92,0.04-3.71,0.09v11.21
			c0.31,1.96,1.53,2.66,4.1,2.66c5.19,0,6.54-4.01,6.54-7.54C25.46,46.87,23.02,44,18.53,44z"/>
		<path d="M65.14,31.04c-1.18,0.74-1.44,3.1-1.44,5.8v13.34c0,7.11-6.93,9.33-11.25,9.33c-7.63,0-11.56-4.01-11.56-8.55V32.92
			c0-0.96-0.35-1.66-1.35-2.18c-0.78-0.39-2.35-0.7-3.05-0.74v-0.96h13.56V30c-0.78,0.04-2.35,0.31-3.14,0.57
			c-1.09,0.35-1.35,1.18-1.35,2.14v17.4c0,3.14,1.13,7.54,7.94,7.54c6.93,0,8.55-4.75,8.55-7.63V37.11c0-3.18-0.52-5.23-1.48-5.84
			c-1.09-0.7-3.45-1.22-4.45-1.26v-0.96h13.04V30C68.37,30.04,66.06,30.48,65.14,31.04z"/>
		<path d="M99.16,59.17H73.34v-0.96c0.78-0.04,2.79-0.26,3.45-0.52c1.05-0.39,1.35-1.13,1.35-2.14V33.27c0-0.96-0.26-1.7-1.35-2.14
			c-0.83-0.35-2.66-0.74-3.45-0.78v-0.96h24.03v6.76h-1.18c-0.48-1.92-2.79-5.15-4.67-5.41c-1.05-0.13-2.22-0.17-3.62-0.17h-5.15
			v12.56h3.79c2.44,0,3.14-0.83,3.66-1.35c0.65-0.65,1.22-2.88,1.35-4.01h1.18v12.17h-1.18c-0.09-1.26-0.83-3.66-1.35-4.23
			c-0.57-0.61-1.31-1.35-3.66-1.35h-3.79v9.59c0,3.58,0.79,3.97,5.19,3.97c3.05,0,6.11,0.09,7.15-1c1.31-1.35,3.1-4.8,3.53-6.11
			h1.09L99.16,59.17z"/>
		<path d="M191.46,30.13c-1.13,0.65-1.65,1.83-2.26,3.18c-1.79,4.14-7.27,16.9-10.67,25.08h-1.61c-4.05-11.28-8.06-22.25-9.49-26.22
			c-0.35-0.91-0.74-1.52-1.79-2.13c-0.78-0.44-2.05-0.74-2.87-0.78V28.3h13.5v0.96c-1.52,0.09-4.22,0.57-4.22,1.61
			c0,0.3,0.09,0.74,0.22,1.09c0.65,1.83,3.7,10.36,7.32,20.12c2.74-6.49,5.62-13.19,7.01-16.55c0.91-2.18,1-3.4,1-3.92
			c0-1.44-3-2.22-5.01-2.35V28.3h11.71v0.96C193.46,29.3,192.24,29.7,191.46,30.13z"/>
		<path d="M222.73,58.22h-25.78v-0.96c0.78-0.04,2.79-0.26,3.44-0.52c1.05-0.39,1.35-1.13,1.35-2.13V32.35
			c0-0.96-0.26-1.7-1.35-2.13c-0.83-0.35-2.66-0.74-3.44-0.78v-0.96h23.99v6.75h-1.18c-0.48-1.92-2.79-5.14-4.66-5.4
			c-1.05-0.13-2.22-0.17-3.61-0.17h-5.14v12.54h3.79c2.44,0,3.14-0.83,3.66-1.35c0.65-0.65,1.22-2.87,1.35-4.01h1.18v12.15h-1.18
			c-0.09-1.26-0.83-3.66-1.35-4.22c-0.57-0.61-1.31-1.35-3.66-1.35h-3.79v9.58c0,3.57,0.78,3.96,5.18,3.96c3.05,0,6.1,0.09,7.14-1
			c1.31-1.35,3.09-4.79,3.53-6.1h1.09L222.73,58.22z"/>
		<path d="M289.44,36.05c-0.48-1.92-2.83-5.97-4.7-6.23c-1.05-0.13-2.35-0.17-3.53-0.17h-2.05v24.69c0,0.96,0.35,1.74,1.35,2.18
			c0.52,0.22,2.79,0.7,3.57,0.74v0.96h-14.46v-0.96c0.78-0.04,3-0.3,3.57-0.52c1.04-0.39,1.35-1.22,1.35-2.18V29.65h-2.05
			c-0.96,0-2.48,0.04-3.53,0.17c-1.87,0.26-4.22,4.31-4.7,6.23h-1.05v-7.58h27.26v7.58H289.44z"/>
		<path d="M323.11,30.13c-1.18,0.74-1.44,3.09-1.44,5.79v13.33c0,7.1-6.92,9.32-11.24,9.32c-7.62,0-11.54-4.01-11.54-8.54V32
			c0-0.96-0.35-1.65-1.35-2.18c-0.78-0.39-2.35-0.7-3.05-0.74v-0.96h13.54v0.96c-0.78,0.04-2.35,0.3-3.14,0.57
			c-1.09,0.35-1.35,1.18-1.35,2.13v17.38c0,3.14,1.13,7.53,7.93,7.53c6.92,0,8.54-4.75,8.54-7.62V36.18c0-3.18-0.52-5.23-1.48-5.84
			c-1.09-0.7-3.44-1.22-4.44-1.26v-0.96h13.02v0.96C326.33,29.13,324.02,29.56,323.11,30.13z"/>
		<path d="M356.2,58.46c-3.48,0-5.14-2.44-5.79-7.36c-0.44-3.44-1.22-7.62-6.27-7.62h-3.44c0,4.7,0,9.01,0,10.89
			c0,0.96,0.3,1.79,1.35,2.18c0.57,0.22,2.4,0.44,3.18,0.48v0.96H331.6v-0.96c0.78-0.04,2.57-0.26,3.14-0.48
			c1.05-0.39,1.35-1.22,1.35-2.18c0-4.14,0-18.46,0-22.38c0-0.96-0.26-1.83-1.35-2.18c-0.78-0.26-2.35-0.57-3.14-0.61v-0.96h15.2
			c4.4,0,9.32,1.96,9.32,6.71c0,4.75-4.96,6.71-8.06,7.58v0.44c2.05,0.22,5.7,1.35,6.58,4.53c0.65,2.4,0.91,4.53,1.48,6.66
			c0.52,1.96,1.7,2.09,2.35,2.09c1.22,0,1.87-0.74,1.87-3.88v-0.91h1.13v0.91C361.47,56.46,360.04,58.46,356.2,58.46z M344.53,29.46
			h-3.83v12.76h2.7c3.83,0,7.36-1.44,7.36-6.4S347.84,29.46,344.53,29.46z"/>
		<path d="M163.17,56.72c-1.05-0.61-1.44-1.26-1.79-2.13c-1.61-4.05-5.88-15.11-10.32-26.35h-0.1v12.4l2.33,5.85h-2.33h-7.25h-1.55
			c-0.95,2.36-1.88,4.65-2.76,6.79c-0.65,1.52-1.44,2.79-2.48,3.4c-0.78,0.44-2.22,0.78-3.05,0.83v0.96h11.98V57.5
			c-1.52-0.09-4.92-0.78-4.92-2.35c0-0.61,0.17-1.48,0.48-2.44c0.39-1.31,0.91-2.79,1.74-4.79h10.71l2.7,6.88
			c0.13,0.35,0.17,0.7,0.17,1c0,1.09-2.87,1.61-4.4,1.7v0.96h13.72V57.5C165.22,57.46,163.96,57.15,163.17,56.72z"/>
		<path d="M392.17,56.72c-1.05-0.61-1.44-1.26-1.79-2.13c-1.61-4.05-5.88-15.11-10.32-26.35h-0.1v12.4l2.33,5.85h-2.33h-7.25h-1.55
			c-0.95,2.36-1.88,4.65-2.76,6.79c-0.65,1.52-1.44,2.79-2.48,3.4c-0.78,0.44-2.22,0.78-3.05,0.83v0.96h11.98V57.5
			c-1.52-0.09-4.92-0.78-4.92-2.35c0-0.61,0.17-1.48,0.48-2.44c0.39-1.31,0.91-2.79,1.74-4.79h10.71l2.7,6.88
			c0.13,0.35,0.17,0.7,0.17,1c0,1.09-2.87,1.61-4.4,1.7v0.96h13.72V57.5C394.22,57.46,392.96,57.15,392.17,56.72z"/>
		<g>
			<path d="M234.36,49.9V33.96l11.63,14.64h5.67l-16-20.13h-8.97v0.96c1.18,0.04,3.61,1.09,4.66,1.92c0.87,0.7,1.39,2.18,1.39,3.44
				v15.33c0,3.4-0.39,5.23-1.44,5.97c-0.48,0.35-3.27,1.13-4.05,1.18v0.96h13.06v-0.96c-0.78-0.04-3.75-0.78-4.49-1.39
				C234.88,55.08,234.36,53.21,234.36,49.9z"/>
			<path d="M247.94,28.48v0.96c1,0.04,3.61,0.78,4.44,1.31c0.96,0.61,1.48,2.74,1.48,5.88V48.6h1.61V36.36
				c0-2.87,0.26-5.1,1.44-5.84c0.7-0.44,3.22-1.05,4.01-1.09v-0.96H247.94z"/>
		</g>
		<g>
			<path d="M110.8,50.84V34.88l11.65,14.66h5.68l-16.02-20.16h-8.98v0.96c1.18,0.04,3.62,1.09,4.67,1.92c0.87,0.7,1.4,2.18,1.4,3.45
				v15.35c0,3.4-0.39,5.23-1.44,5.97c-0.48,0.35-3.27,1.13-4.06,1.18v0.96h13.08v-0.96c-0.78-0.04-3.75-0.78-4.49-1.4
				C111.33,56.03,110.8,54.16,110.8,50.84z"/>
			<path d="M124.41,29.39v0.96c1,0.04,3.62,0.78,4.45,1.31c0.96,0.61,1.48,2.75,1.48,5.89v12h1.61V37.28c0-2.88,0.26-5.1,1.44-5.84
				c0.7-0.44,3.23-1.05,4.01-1.09v-0.96H124.41z"/>
		</g>
	</g>
</g>
</svg>
